<?xml version="1.0" encoding="utf-8"?><!-- Uploaded to: SVG Repo, www.svgrepo.com, Generator: SVG Repo Mixer Tools -->
<svg fill="#000000" width="800px" height="800px" viewBox="0 0 24 24" id="music-album" data-name="Flat Color" xmlns="http://www.w3.org/2000/svg" class="icon flat-color"><path id="secondary" d="M16,6H8a1,1,0,0,1-.89-.55,1,1,0,0,1,.09-1,6,6,0,0,1,9.56,0,1,1,0,0,1,.09,1A1,1,0,0,1,16,6ZM12,4h0Z" style="fill: rgb(44, 169, 188);"></path><rect id="primary" x="3" y="4" width="18" height="18" rx="2" style="fill: rgb(0, 0, 0);"></rect><path id="secondary-2" data-name="secondary" d="M13,8a1,1,0,0,0-1,1v3.18A3,3,0,1,0,14,15V10.22A2,2,0,0,1,15,12a1,1,0,0,0,2,0A3.91,3.91,0,0,0,13,8Z" style="fill: rgb(44, 169, 188);"></path></svg>